<svg id="Layer_1" data-name="Layer 1" xmlns="http://www.w3.org/2000/svg" viewBox="0 0 146.52 146.52"><defs><style>.cls-1{fill:#fff;}.cls-2{fill:#0054a5;}.cls-3{fill:#ffd600;}.cls-4{fill:#4d4d4f;}</style></defs><circle class="cls-1" cx="73.26" cy="73.26" r="73.26"/><path class="cls-2" d="M101.43,38.08a9.35,9.35,0,1,0-9.35-9.35,9.35,9.35,0,0,0,9.35,9.35"/><path class="cls-3" d="M45.09,38.08a9.35,9.35,0,1,0-9.35-9.35,9.35,9.35,0,0,0,9.35,9.35"/><path class="cls-2" d="M106.75,43.41H97.66a4,4,0,0,0-4,4v3.76c0,10.44-6.86,14.71-11.47,16.4l-.28.1-.27.1a23.64,23.64,0,0,1-8.2,1.39h0a7.69,7.69,0,0,1,.06,15.38h0A45.64,45.64,0,0,0,86.5,83a32,32,0,0,0,14.74-7.55c6.33-6,9.54-14.71,9.54-26v-2a4,4,0,0,0-4-4"/><path class="cls-3" d="M73.34,69.16h0a26.34,26.34,0,0,1-9-1.59h0c-4.61-1.69-11.47-6-11.47-16.4v-3.7a4,4,0,0,0-4-4H39.78a4,4,0,0,0-4,4v2c0,11.33,3.21,20.09,9.54,26.05A32.08,32.08,0,0,0,60,83h-.12l.73.15c1.59.35,3.25.63,5,.84a65.94,65.94,0,0,0,7.56.55h.39a7.7,7.7,0,0,0-.13-15.39"/><path class="cls-4" d="M58.59,112.37a2.65,2.65,0,0,0,.44,2.28,4.1,4.1,0,0,0,4.81,1.6A42.94,42.94,0,0,0,75,108.59v9.51a1.23,1.23,0,0,0,1.23,1.23h3.06a1.23,1.23,0,0,0,1.23-1.23h0V101.47a.71.71,0,0,1,.71-.71H83.8a.53.53,0,0,1,.53.53v16.82a1.23,1.23,0,0,0,1.23,1.23h3.06a1.24,1.24,0,0,0,1.24-1.23V96.65a1.26,1.26,0,0,0-1.24-1.24H76.19A1.24,1.24,0,0,0,75,96.65v3.1c-2.72-2.21-3.95-3.29-9.3-3.86a12,12,0,0,0-4.77.43c-3.7,1.14-3.68,3.2-3.69,3.59a5.58,5.58,0,0,0,1.2,3.66,6.44,6.44,0,0,1,1.35,3.77,8.67,8.67,0,0,1-.42,2.9c-.24.78-.58,1.45-.74,2.13m4.77-10.23a.54.54,0,0,1,0-.76.52.52,0,0,1,.19-.14c2-.85,9.16,1.13,8.87,2.57s-9,7.92-8.24,5.71c.11-.35.49-1.59.58-2a7.08,7.08,0,0,0,.2-2,5.39,5.39,0,0,0-1.55-3.42"/><path class="cls-4" d="M111.87,95.41h-19a1.2,1.2,0,0,0-1.23,1.17v0l-.09,3.22v.06c.05.86-.13,2.87.56,4.15a2.87,2.87,0,0,0,2.26,1.27c1.13.16,2.27.26,2.63.64,1.4,1.47-1.12,2.12-2.74,2.68-2.2.78-2.66,1.47-2.66,3.2,0,1.88-.29,2.89.46,4.66s2.63,1.61,4.45,1.48c11-.76,11.11,2.51,14.53.93a3.44,3.44,0,0,0,2-3.48V96.58a1.2,1.2,0,0,0-1.23-1.17h0m-5.6,17.68a45.8,45.8,0,0,0-7.31-.46c-.9-.16-1-1,0-1.63.58-.35,4.42-1.52,4.48-4.54h0a3.53,3.53,0,0,0-2.33-3.36l-1.78-.64A1.55,1.55,0,0,1,98,101.07a.26.26,0,0,1,.23-.28h7.85a1.2,1.2,0,0,1,1.23,1.16c.08,1.59.14,2.62.18,4.21,0,1.24,0,2.47,0,3.71,0,.32.15,1.69.16,2.62,0,1.14-1.11.72-1.48.65"/><path class="cls-4" d="M54.82,100.73a1.25,1.25,0,0,0,1.23-1.27h0V96.71a1.25,1.25,0,0,0-1.23-1.27h-3A5,5,0,0,0,50,88.61a5,5,0,0,0-2-.65c-3-.51-7.62,2-10.49-.22-1.12-.85-2.27-1-2.76.29a8.23,8.23,0,0,0-.46,1.77,2.69,2.69,0,0,0,1.24,2.71c1.54,1,4.74,1.41,9.72.38,2.5-.52,3.34,2.6.69,2.6H34.9a1.25,1.25,0,0,0-1.23,1.27h0v2.71a1.25,1.25,0,0,0,1.23,1.27h7.21v6.61c0,2.41,1.32,3.39,5.15,2.92l3.12-.53a.51.51,0,0,1,.59.39.61.61,0,0,1,0,.19c-.41,2.55-3.32,3.84-6.64,3.63-2.26-.14-3.76-.85-4.38-2-1.6-2.88-1.22-8.31-1.22-8.31a1.25,1.25,0,0,0-1.23-1.27H35a1.24,1.24,0,0,0-.8.3,5.48,5.48,0,0,0-.72,2.47,20.94,20.94,0,0,0,.16,5.59c1.29,5.88,4.48,8.76,11.43,8.76A12,12,0,0,0,53,116.7a8,8,0,0,0,3-6.32v-3.91a2.22,2.22,0,0,0-1.36-2.23,2.15,2.15,0,0,0-1.46,0l-3.51.83H49.6c-1.06.24-1.58.14-2-.24a1.49,1.49,0,0,1-.46-1.14v-3Z"/><path class="cls-4" d="M101.31,127.11A3.66,3.66,0,1,0,98.16,123a3.78,3.78,0,0,0,0,1,3.68,3.68,0,0,0,3.15,3.16"/></svg>