<svg xmlns="http://www.w3.org/2000/svg" width="1526" height="962" fill="none" viewBox="0 0 1526 962">
    <path fill="#0054A5" d="M0 0h1526l-301 962H0V0z"/>
    <path fill="#fff" d="M817.819 590.101c-1.408-.238-2.752.737-2.968 2.145-.217 1.409.736 2.752 2.145 2.969 1.408.238 2.751-.737 2.968-2.145.238-1.409-.737-2.73-2.145-2.969z"/>
    <path stroke="#fff" stroke-linecap="round" stroke-linejoin="round" stroke-miterlimit="10" stroke-width="2.134" d="M0 460.573c261.96 227.574 473.89 223.436 560.387 207.944 59.369-10.639 96.551-24.398 146.386-56.531 71.221-45.914 102.076-141.099 75.511-221.876-33.064-100.494-141.727-155.356-242.243-122.291-100.494 33.065-155.356 141.727-122.291 242.243 19.392 58.936 67.429 102.769 119.28 121.186 43.161 15.319 151.456 47.734 271.797-31.786"/>
    <path fill="#fff" d="M601.122 617.056c93.268 0 168.877-75.609 168.877-168.877 0-93.268-75.609-168.876-168.877-168.876-93.268 0-168.877 75.608-168.877 168.876s75.609 168.877 168.877 168.877z"/>
    <path fill="#0054A5" d="M666.059 367.078c11.874 0 21.56-9.663 21.56-21.559 0-11.895-9.664-21.559-21.56-21.559-11.895 0-21.559 9.664-21.559 21.559 0 11.896 9.664 21.559 21.559 21.559z"/>
    <path fill="#FFD600" d="M536.163 367.078c11.874 0 21.559-9.663 21.559-21.559 0-11.895-9.664-21.559-21.559-21.559-11.896 0-21.559 9.664-21.559 21.559 0 11.896 9.685 21.559 21.559 21.559z"/>
    <path fill="#0054A5" d="M678.323 379.364h-20.974c-5.113 0-9.295 4.16-9.295 9.296v8.602c0 24.051-15.817 33.909-26.456 37.809-.217.065-.412.152-.629.217-.216.087-.411.152-.628.217-6.63 2.427-13.13 3.228-18.894 3.207v.021c9.707.087 17.572 8.017 17.572 17.724 0 9.686-7.8 17.573-17.442 17.724 17.746.13 28.774-3.12 30.053-3.531 13.715-3.294 25.134-9.057 33.953-17.334 14.604-13.738 22.014-33.932 22.014-60.041v-4.659c.022-5.07-4.138-9.252-9.274-9.252z"/>
    <path fill="#FFD600" d="M601.295 438.755h-.043v-.022c-11.939-.086-20.649-3.662-20.649-3.662-10.639-3.9-26.456-13.737-26.456-37.809v-8.602c0-5.136-4.16-9.296-9.296-9.296h-20.952c-5.135 0-9.295 4.16-9.295 9.296v4.658c0 26.109 7.41 46.304 21.992 60.041 8.776 8.255 20.129 13.997 33.78 17.291h-.304c.564.13 1.127.238 1.691.346 3.661.824 7.497 1.474 11.483 1.95 6.349.824 12.156 1.192 17.421 1.257.303 0 .607.022.91.022 9.642-.174 17.442-8.039 17.442-17.724.022-9.794-7.93-17.746-17.724-17.746z"/>
    <path fill="#4D4D4F" d="M567.299 538.361c-.39 1.646-.304 3.315.996 5.265 2.341 3.467 7.129 5.373 11.094 3.683 4.724-2.015 16.879-8.992 25.633-17.659v21.906c0 1.56 1.278 2.838 2.838 2.838h7.064c1.56 0 2.838-1.278 2.838-2.838v-38.351c0-.911.737-1.626 1.625-1.626h5.916c.671 0 1.235.542 1.235 1.235v38.764c0 1.56 1.278 2.838 2.838 2.838h7.042c1.56 0 2.839-1.278 2.839-2.838v-49.446c0-1.56-1.279-2.838-2.839-2.838h-28.579c-1.56 0-2.839 1.278-2.839 2.838 0 1.365-.021 5.786 0 7.151-6.283-5.092-9.1-7.584-21.451-8.906-3.683-.39-7.453-.108-11.007.997-8.515 2.622-8.472 7.389-8.493 8.277-.109 3.055.866 6.045 2.773 8.45 1.95 2.47 3.012 5.526 3.12 8.667.087 2.275-.303 4.529-.975 6.696-.52 1.776-1.3 3.315-1.668 4.897zm10.985-23.575c-.693-.606-.52-1.733.325-2.08 4.55-1.95 21.104 2.6 20.454 5.915-.693 3.381-20.627 18.266-19.002 13.174.26-.801 1.127-3.683 1.343-4.593.347-1.495.542-3.012.477-4.529-.152-3.402-1.56-5.373-3.597-7.887zM690.11 499.271h-43.681c-1.604 0-2.882 1.236-2.839 2.752l-.195 7.411v.13c.109 1.993-.303 6.63 1.3 9.577.845 1.56 2.579 2.513 5.2 2.903 2.622.39 5.244.607 6.067 1.473 3.207 3.381-2.578 4.876-6.327 6.197-5.07 1.777-6.131 3.38-6.131 7.367 0 4.334-.672 6.674 1.061 10.747 1.864 4.399 6.067 3.706 10.249 3.424 25.373-1.755 25.633 5.785 33.52 2.145 3.38-1.56 4.528-4.204 4.636-8.017.044-1.56-.021-3.142-.021-4.702v-38.72c.022-1.495-1.257-2.687-2.839-2.687zm-12.892 40.735c-7.063-1.365-16.012-.91-16.857-1.061-2.059-.369-2.34-2.362.022-3.749 1.343-.801 10.183-3.51 10.335-10.465v-.087c.065-3.423-2.102-6.543-5.395-7.735l-4.095-1.495c-2.059-.39-2.947-2.189-2.947-3.185 0-.412.238-.585.52-.672.325-.087 4.918-.022 4.918-.022h13.174c1.582 0 2.839 1.214 2.839 2.687.173 3.684.303 6.024.411 9.707.065 2.839.13 5.699.109 8.537 0 .737.346 3.9.346 6.045.044 2.622-2.535 1.669-3.38 1.495zM558.61 511.514c1.56 0 2.839-1.3 2.839-2.925v-6.348c0-1.604-1.279-2.926-2.839-2.926l-6.912-.13c2.882-4.268 2.665-15.275-8.688-17.225-6.869-1.17-17.573 4.55-24.203-.499-2.578-1.971-5.243-2.253-6.349.672-.52 1.365-.931 2.839-1.061 4.052-.13 1.127-.282 4.138 2.882 6.262 3.553 2.362 10.92 3.25 22.404.867 5.763-1.192 7.692 6.001 1.582 6.001H512.697c-1.56 0-2.839 1.3-2.839 2.926v6.348c0 1.625 1.279 2.925 2.839 2.925h16.619s0 7.606.043 15.254c.022 5.547 3.034 7.801 11.874 6.739l7.194-1.214c.78-.151 1.473.542 1.343 1.344-.953 5.872-7.649 8.84-15.319 8.363-5.2-.325-8.645-1.95-10.097-4.55-3.683-6.63-2.817-19.154-2.817-19.154 0-1.603-1.278-2.925-2.838-2.925H513c-.693 0-1.343.26-1.842.693-.628.542-1.451 3.272-1.668 5.699-.325 3.575-.455 9.1.39 12.871 2.968 13.563 10.335 20.194 26.348 20.194 8.363 0 14.3-3.055 18.309-6.436 4.442-3.748 6.933-8.645 6.933-14.56v-9.036c0-1.321-.325-4.181-3.141-5.156-1.084-.369-2.275-.304-3.359.086l-8.103 1.929-.195.065c-2.427.563-3.641.346-4.616-.564-.715-.65-1.083-1.625-1.061-2.621l.021-6.999 17.594-.022zM665.778 572.334c5.503.694 10.162-3.965 9.469-9.468-.477-3.749-3.51-6.804-7.281-7.281-5.525-.693-10.183 3.965-9.468 9.469.498 3.77 3.531 6.804 7.28 7.28z"/>
</svg>
