<svg id="Layer_1" data-name="Layer 1" xmlns="http://www.w3.org/2000/svg" xmlns:xlink="http://www.w3.org/1999/xlink" viewBox="0 0 1921.07 962"><defs><style>.cls-1,.cls-5{fill:none;}.cls-2{clip-path:url(#clip-path);}.cls-3{fill:#fff;}.cls-4{fill:#ffd600;}.cls-5{stroke:#fff;stroke-linecap:round;stroke-linejoin:round;stroke-width:2.13px;}.cls-6{fill:#0054a5;}.cls-7{fill:#4d4d4f;}</style><clipPath id="clip-path" transform="translate(1.07)"><rect class="cls-1" width="1920" height="1080"/></clipPath></defs><g class="cls-2"><rect class="cls-3" x="1.07" width="1920" height="962"/><path class="cls-4" d="M0,0H1526L1225,962H0Z" transform="translate(1.07)"/><path class="cls-3" d="M817.82,590.1a2.59,2.59,0,1,0,2.14,3A2.58,2.58,0,0,0,817.82,590.1Z" transform="translate(1.07)"/><path class="cls-5" d="M0,460.57C262,688.15,473.89,684,560.39,668.52c59.37-10.64,96.55-24.4,146.38-56.53,71.22-45.92,102.08-141.1,75.51-221.88C749.22,289.62,640.56,234.76,540,267.82S384.68,409.55,417.75,510.06C437.14,569,485.18,612.83,537,631.25c43.16,15.32,151.46,47.73,271.8-31.79" transform="translate(1.07)"/><path class="cls-3" d="M601.12,617.06A168.88,168.88,0,1,0,432.24,448.18,168.88,168.88,0,0,0,601.12,617.06Z" transform="translate(1.07)"/><path class="cls-6" d="M666.06,367.08a21.56,21.56,0,1,0-21.56-21.56A21.59,21.59,0,0,0,666.06,367.08Z" transform="translate(1.07)"/><path class="cls-4" d="M536.16,367.08a21.56,21.56,0,1,0-21.56-21.56A21.58,21.58,0,0,0,536.16,367.08Z" transform="translate(1.07)"/><path class="cls-6" d="M678.32,379.36h-21a9.31,9.31,0,0,0-9.3,9.3v8.6c0,24.05-15.81,33.91-26.45,37.81l-.63.22c-.22.08-.41.15-.63.21a54.22,54.22,0,0,1-18.89,3.21v0a17.73,17.73,0,0,1,.13,35.45c17.74.13,28.77-3.12,30-3.53,13.71-3.29,25.13-9.06,34-17.33,14.61-13.74,22-33.94,22-60.05v-4.65A9.28,9.28,0,0,0,678.32,379.36Z" transform="translate(1.07)"/><path class="cls-4" d="M601.29,438.75h0v0a60.7,60.7,0,0,1-20.65-3.66c-10.64-3.9-26.45-13.74-26.45-37.81v-8.6a9.3,9.3,0,0,0-9.3-9.3h-21a9.3,9.3,0,0,0-9.3,9.3v4.66c0,26.11,7.41,46.3,22,60,8.77,8.25,20.12,14,33.78,17.29h-.31c.57.13,1.13.24,1.69.35A116,116,0,0,0,583.25,473a149,149,0,0,0,17.42,1.25l.91,0a17.74,17.74,0,0,0-.29-35.47Z" transform="translate(1.07)"/><path class="cls-7" d="M567.3,538.36a6.23,6.23,0,0,0,1,5.27c2.35,3.46,7.13,5.37,11.1,3.68A98.93,98.93,0,0,0,605,529.65v21.91a2.84,2.84,0,0,0,2.84,2.83h7.06a2.84,2.84,0,0,0,2.84-2.83V513.21a1.62,1.62,0,0,1,1.63-1.63h5.91a1.24,1.24,0,0,1,1.24,1.23v38.77a2.85,2.85,0,0,0,2.84,2.84h7a2.85,2.85,0,0,0,2.84-2.84V502.13a2.85,2.85,0,0,0-2.84-2.84H607.84a2.85,2.85,0,0,0-2.84,2.84c0,1.37,0,5.79,0,7.15-6.28-5.09-9.1-7.58-21.45-8.9a27.53,27.53,0,0,0-11,1c-8.51,2.63-8.47,7.39-8.49,8.28a12.8,12.8,0,0,0,2.77,8.45,14.82,14.82,0,0,1,3.12,8.67,20,20,0,0,1-1,6.69C568.45,535.24,567.67,536.78,567.3,538.36Zm11-23.57a1.24,1.24,0,0,1,.33-2.08c4.55-2,21.1,2.6,20.45,5.91s-20.62,18.27-19,13.17c.26-.8,1.13-3.68,1.34-4.59a16.52,16.52,0,0,0,.48-4.53C581.73,519.27,580.32,517.3,578.28,514.79Z" transform="translate(1.07)"/><path class="cls-7" d="M690.11,499.27H646.43a2.76,2.76,0,0,0-2.84,2.75l-.19,7.41v.13c.1,2-.31,6.63,1.3,9.58.84,1.56,2.57,2.52,5.2,2.9s5.24.61,6.06,1.48c3.21,3.38-2.58,4.87-6.32,6.2-5.07,1.77-6.14,3.37-6.14,7.36,0,4.33-.67,6.68,1.07,10.75,1.86,4.4,6.06,3.7,10.24,3.42,25.38-1.75,25.64,5.79,33.52,2.15,3.38-1.56,4.53-4.21,4.64-8,0-1.56,0-3.14,0-4.7V502A2.74,2.74,0,0,0,690.11,499.27ZM677.22,540c-7.06-1.37-16-.91-16.86-1.06-2.06-.37-2.34-2.37,0-3.75,1.35-.8,10.19-3.51,10.34-10.47v-.08a8.11,8.11,0,0,0-5.4-7.74l-4.09-1.5a3.55,3.55,0,0,1-3-3.18.64.64,0,0,1,.52-.67c.33-.09,4.92,0,4.92,0h13.17a2.76,2.76,0,0,1,2.84,2.68c.18,3.69.3,6,.41,9.71.07,2.84.13,5.7.11,8.54,0,.73.35,3.9.35,6C680.64,541.13,678.06,540.18,677.22,540Z" transform="translate(1.07)"/><path class="cls-7" d="M558.61,511.51a2.88,2.88,0,0,0,2.84-2.92v-6.35a2.89,2.89,0,0,0-2.84-2.92l-6.91-.14c2.88-4.26,2.66-15.27-8.69-17.22-6.87-1.17-17.57,4.55-24.2-.5-2.58-2-5.25-2.25-6.35.67a17.37,17.37,0,0,0-1.06,4.05,6.31,6.31,0,0,0,2.88,6.27c3.55,2.36,10.92,3.25,22.4.86,5.77-1.19,7.7,6,1.59,6H512.7a2.88,2.88,0,0,0-2.84,2.92v6.35a2.88,2.88,0,0,0,2.84,2.92h16.62s0,7.61,0,15.26c0,5.55,3,7.8,11.87,6.74l7.2-1.22a1.16,1.16,0,0,1,1.34,1.35c-.95,5.87-7.65,8.84-15.32,8.36-5.2-.33-8.64-2-10.1-4.55-3.68-6.63-2.81-19.15-2.81-19.15a2.9,2.9,0,0,0-2.84-2.93H513a2.83,2.83,0,0,0-1.84.69c-.63.55-1.45,3.28-1.67,5.7-.32,3.58-.45,9.1.39,12.87,3,13.57,10.34,20.2,26.35,20.2a27.64,27.64,0,0,0,18.31-6.44,18.47,18.47,0,0,0,6.93-14.56v-9c0-1.33-.32-4.19-3.14-5.16a5.1,5.1,0,0,0-3.36.09l-8.1,1.93-.2.06c-2.43.56-3.64.35-4.61-.56a3.44,3.44,0,0,1-1.07-2.63l0-7Z" transform="translate(1.07)"/><path class="cls-7" d="M665.78,572.33a8.44,8.44,0,1,0-7.28-7.28A8.46,8.46,0,0,0,665.78,572.33Z" transform="translate(1.07)"/></g></svg>