<svg width="1526" height="962" viewBox="0 0 1526 962" fill="none" xmlns="http://www.w3.org/2000/svg">
<path d="M0 0H1526L1225 962H0V0Z" fill="#FFD600"/>
<path d="M817.819 590.102C816.411 589.863 815.067 590.839 814.851 592.247C814.634 593.655 815.587 594.999 816.996 595.215C818.404 595.454 819.747 594.479 819.964 593.07C820.202 591.662 819.227 590.34 817.819 590.102Z" fill="white"/>
<path d="M0 460.574C261.96 688.148 473.89 684.009 560.387 668.517C619.756 657.878 656.938 644.119 706.773 611.986C777.994 566.073 808.849 470.887 782.284 390.111C749.22 289.617 640.557 234.755 540.041 267.819C439.547 300.884 384.685 409.547 417.75 510.062C437.142 568.998 485.179 612.831 537.03 631.249C580.191 646.568 688.486 678.982 808.827 599.463" stroke="white" stroke-width="2.1337" stroke-miterlimit="10" stroke-linecap="round" stroke-linejoin="round"/>
<path d="M601.122 617.057C694.39 617.057 769.999 541.448 769.999 448.18C769.999 354.912 694.39 279.303 601.122 279.303C507.854 279.303 432.245 354.912 432.245 448.18C432.245 541.448 507.854 617.057 601.122 617.057Z" fill="white"/>
<path d="M666.059 367.078C677.933 367.078 687.619 357.415 687.619 345.519C687.619 333.624 677.955 323.96 666.059 323.96C654.164 323.96 644.5 333.624 644.5 345.519C644.5 357.415 654.164 367.078 666.059 367.078Z" fill="#0054A5"/>
<path d="M536.163 367.078C548.037 367.078 557.722 357.415 557.722 345.519C557.722 333.624 548.058 323.96 536.163 323.96C524.267 323.96 514.604 333.624 514.604 345.519C514.604 357.415 524.289 367.078 536.163 367.078Z" fill="#FFD600"/>
<path d="M678.323 379.364H657.349C652.236 379.364 648.054 383.524 648.054 388.659V397.261C648.054 421.312 632.237 431.171 621.598 435.071C621.381 435.136 621.186 435.223 620.969 435.288C620.753 435.374 620.558 435.439 620.341 435.504C613.711 437.931 607.211 438.733 601.447 438.711V438.733C611.154 438.819 619.019 446.75 619.019 456.457C619.019 466.142 611.219 474.029 601.577 474.181C619.323 474.311 630.351 471.061 631.63 470.649C645.345 467.356 656.764 461.592 665.583 453.315C680.187 439.578 687.597 419.384 687.597 393.274V388.616C687.619 383.546 683.459 379.364 678.323 379.364Z" fill="#0054A5"/>
<path d="M601.295 438.754C601.274 438.754 601.274 438.754 601.252 438.754V438.733C589.313 438.646 580.603 435.071 580.603 435.071C569.964 431.171 554.147 421.334 554.147 397.261V388.659C554.147 383.524 549.987 379.364 544.851 379.364H523.899C518.764 379.364 514.604 383.524 514.604 388.659V393.318C514.604 419.427 522.014 439.621 536.596 453.358C545.372 461.614 556.725 467.356 570.376 470.649H570.072C570.636 470.779 571.199 470.887 571.763 470.996C575.424 471.819 579.26 472.469 583.246 472.946C589.595 473.769 595.402 474.138 600.667 474.203C600.97 474.203 601.274 474.224 601.577 474.224C611.219 474.051 619.019 466.186 619.019 456.5C619.041 446.706 611.089 438.754 601.295 438.754Z" fill="#FFD600"/>
<path d="M567.299 538.361C566.909 540.007 566.995 541.676 568.295 543.626C570.636 547.093 575.424 548.999 579.389 547.309C584.113 545.294 596.268 538.317 605.022 529.65V551.556C605.022 553.116 606.3 554.394 607.86 554.394H614.924C616.484 554.394 617.762 553.116 617.762 551.556V513.205C617.762 512.294 618.499 511.579 619.387 511.579H625.303C625.974 511.579 626.538 512.121 626.538 512.814V551.578C626.538 553.138 627.816 554.416 629.376 554.416H636.418C637.978 554.416 639.257 553.138 639.257 551.578V502.132C639.257 500.572 637.978 499.294 636.418 499.294H607.839C606.279 499.294 605 500.572 605 502.132C605 503.497 604.979 507.918 605 509.283C598.717 504.191 595.9 501.699 583.549 500.377C579.866 499.987 576.096 500.269 572.542 501.374C564.027 503.996 564.07 508.763 564.049 509.651C563.94 512.706 564.915 515.696 566.822 518.101C568.772 520.571 569.834 523.627 569.942 526.768C570.029 529.043 569.639 531.297 568.967 533.464C568.447 535.24 567.667 536.779 567.299 538.361ZM578.284 514.786C577.591 514.18 577.764 513.053 578.609 512.706C583.159 510.756 599.713 515.306 599.063 518.621C598.37 522.002 578.436 536.887 580.061 531.795C580.321 530.994 581.188 528.112 581.404 527.202C581.751 525.707 581.946 524.19 581.881 522.673C581.729 519.271 580.321 517.3 578.284 514.786Z" fill="#4D4D4F"/>
<path d="M690.11 499.272H646.429C644.825 499.272 643.547 500.507 643.59 502.024L643.395 509.434C643.395 509.477 643.395 509.521 643.395 509.564C643.504 511.557 643.092 516.194 644.695 519.141C645.54 520.701 647.274 521.655 649.895 522.045C652.517 522.435 655.139 522.651 655.962 523.518C659.169 526.898 653.384 528.393 649.635 529.715C644.565 531.492 643.504 533.095 643.504 537.082C643.504 541.415 642.832 543.755 644.565 547.829C646.429 552.227 650.632 551.534 654.814 551.252C680.187 549.497 680.447 557.038 688.334 553.397C691.714 551.837 692.862 549.194 692.97 545.38C693.014 543.82 692.949 542.239 692.949 540.679V525.88V501.959C692.971 500.464 691.692 499.272 690.11 499.272ZM677.218 540.007C670.155 538.642 661.206 539.097 660.361 538.945C658.302 538.577 658.021 536.583 660.383 535.197C661.726 534.395 670.566 531.687 670.718 524.731V524.645C670.783 521.221 668.616 518.101 665.323 516.909L661.228 515.414C659.169 515.024 658.281 513.226 658.281 512.229C658.281 511.817 658.519 511.644 658.801 511.557C659.126 511.471 663.719 511.536 663.719 511.536H676.893C678.475 511.536 679.732 512.749 679.732 514.223C679.905 517.906 680.035 520.246 680.143 523.93C680.208 526.768 680.273 529.628 680.252 532.467C680.252 533.203 680.598 536.367 680.598 538.512C680.642 541.134 678.063 540.18 677.218 540.007Z" fill="#4D4D4F"/>
<path d="M558.61 511.514C560.17 511.514 561.449 510.214 561.449 508.589V502.241C561.449 500.637 560.17 499.315 558.61 499.315L551.698 499.185C554.58 494.917 554.363 483.91 543.01 481.96C536.141 480.79 525.437 486.51 518.807 481.461C516.229 479.49 513.564 479.208 512.458 482.133C511.938 483.498 511.527 484.972 511.397 486.185C511.267 487.312 511.115 490.323 514.279 492.447C517.832 494.809 525.199 495.697 536.683 493.314C542.446 492.122 544.375 499.315 538.265 499.315H523.769H512.697C511.137 499.315 509.858 500.615 509.858 502.241V508.589C509.858 510.214 511.137 511.514 512.697 511.514H529.316C529.316 511.514 529.316 519.12 529.359 526.768C529.381 532.315 532.393 534.569 541.233 533.507L548.427 532.293C549.207 532.142 549.9 532.835 549.77 533.637C548.817 539.509 542.121 542.477 534.451 542C529.251 541.675 525.806 540.05 524.354 537.45C520.671 530.82 521.537 518.296 521.537 518.296C521.537 516.693 520.259 515.371 518.699 515.371H513C512.307 515.371 511.657 515.631 511.158 516.064C510.53 516.606 509.707 519.336 509.49 521.763C509.165 525.338 509.035 530.863 509.88 534.634C512.848 548.197 520.215 554.828 536.228 554.828C544.591 554.828 550.528 551.773 554.537 548.392C558.979 544.644 561.47 539.747 561.47 533.832V524.796C561.47 523.475 561.145 520.615 558.329 519.64C557.245 519.271 556.054 519.336 554.97 519.726L546.867 521.655C546.802 521.676 546.737 521.698 546.672 521.72C544.245 522.283 543.031 522.066 542.056 521.156C541.341 520.506 540.973 519.531 540.995 518.535L541.016 511.536L558.61 511.514Z" fill="#4D4D4F"/>
<path d="M665.778 572.334C671.281 573.028 675.94 568.369 675.247 562.866C674.77 559.117 671.737 556.062 667.966 555.585C662.441 554.892 657.783 559.55 658.498 565.054C658.996 568.824 662.029 571.858 665.778 572.334Z" fill="#4D4D4F"/>
</svg>
