<?xml version="1.0" encoding="utf-8"?>
<!-- Generator: Adobe Illustrator 25.0.0, SVG Export Plug-In . SVG Version: 6.00 Build 0)  -->
<svg version="1.1" id="Layer_1" xmlns="http://www.w3.org/2000/svg" xmlns:xlink="http://www.w3.org/1999/xlink" x="0px" y="0px"
	 viewBox="0 0 730.3 415.4" style="enable-background:new 0 0 730.3 415.4;" xml:space="preserve">
<style type="text/css">
	.st0{fill:#FFFFFF;}
	.st1{fill:url(#SVGID_1_);}
	.st2{opacity:0.75;fill:url(#SVGID_2_);stroke:#FFFFFF;stroke-width:0.1;stroke-miterlimit:10;enable-background:new    ;}
	.st3{fill:#909090;}
	.st4{fill:none;}
</style>
<g>
	<path class="st0" d="M303.1,254.8v-91c0-4.6,1.6-8.5,4.8-11.7c3.2-3.2,7.1-4.8,11.7-4.8h43.1c13,0,23.2,2.8,30.3,8.4l0.1,0.1
		c7.3,6.3,11,14.8,11,25.4c0,6.7-1.5,12.5-4.4,17.2l-0.1,0.1c-1.6,2.5-3.6,4.7-5.9,6.6c3.6,2.4,6.5,5.2,8.9,8.5
		c3.5,5.1,5.2,11.6,5.2,19.5c0,12.6-4.2,22.6-12.4,29.8l-0.1,0.1c-8.3,6.8-19.8,10.2-34.4,10.2h-39.8
		C301,273.4,303.1,254.8,303.1,254.8z M359.3,243.7c5.4,0,9.6-1,12.2-2.9c0.8-0.6,3.1-2.2,3.1-8.2c0-4.2-1-7-3.2-8.7
		c-1.5-1.1-4.9-2.5-12.5-2.5h-24.2v22.4h24.6V243.7z M358.3,192.8c6.2,0,9.1-1.2,10.5-2.2c1-0.8,2.4-2.3,2.4-6.2s-1.4-5.4-2.4-6.2
		l-0.1-0.1c-0.5-0.4-2.9-1.8-10.7-1.8h-23.2v16.6h23.5L358.3,192.8L358.3,192.8z"/>
	<path class="st0" d="M154.9,152.3c-3.2-3.5-7.2-5.3-11.8-5.3h-16.5v77.7c0,8-1.4,13.9-4.2,17.5c-2.8,3.1-7.6,4.7-14.2,4.7
		s-11.4-1.6-14.2-4.7c-2.8-3.6-4.1-9.4-4.1-17.5V147H73.4c-4.6,0-8.6,1.8-11.8,5.3c-3.1,3.4-4.7,7.4-4.7,11.9v63.2
		c0,15.7,4.6,27.9,13.6,36.2c8.3,8.3,21,12.4,37.8,12.4s29.5-4.2,37.8-12.4c9-8.3,13.6-20.5,13.6-36.2v-63.2
		C159.6,159.7,158.1,155.7,154.9,152.3z"/>
	<path class="st0" d="M255.3,234.4c-1.4,3-3.2,5.4-5.3,7c-4.1,3.1-9.2,4.6-15.6,4.6c-9.2,0-15.8-2.9-20.2-8.9l-0.1-0.1
		c-4.8-6-7.3-15.1-7.3-26.8c0-12.2,2.5-21.4,7.2-27.4c4.9-5.9,11.8-8.7,21-8.7c3.3,0,6.3,0.4,8.9,1.1c2.5,0.7,4.6,1.7,6.4,3
		c1.9,1.9,3.5,4.1,4.8,6.6c3,6.2,8.3,9.5,15.4,9.5H290l-0.4-4.6c-0.4-5.2-1.5-10.1-3-14.5c-2.7-7.6-6.9-14-12.8-19.1
		c-9.6-8.1-22.6-12.3-38.6-12.3c-19.6,0-34.9,5.9-45.4,17.4c-10.3,11-15.5,27.5-15.5,49c0,21,5.1,37.3,15.1,48.3
		c10.1,11.6,24.9,17.5,43.8,17.5c16.2,0,29.5-4.1,39.5-12.2l0.1-0.1c9.9-8.5,15.6-20.2,16.8-35l0.4-4.5h-12.7
		C277.2,224.2,260.4,223.7,255.3,234.4z"/>
	<g>
		
			<linearGradient id="SVGID_1_" gradientUnits="userSpaceOnUse" x1="448.6678" y1="6244.186" x2="673.4541" y2="6244.186" gradientTransform="matrix(1 0 0 1 0 -6054)">
			<stop  offset="0" style="stop-color:#E10B17"/>
			<stop  offset="0.2059" style="stop-color:#DE0B16"/>
			<stop  offset="0.3821" style="stop-color:#D30A14"/>
			<stop  offset="0.5472" style="stop-color:#C10811"/>
			<stop  offset="0.7057" style="stop-color:#A9060D"/>
			<stop  offset="0.858" style="stop-color:#890307"/>
			<stop  offset="1" style="stop-color:#640000"/>
		</linearGradient>
		<path class="st1" d="M637.3,145.3l-42.8-42.9l-14.6-15c-15.8-17.3-31.9-29.8-55.8-30.5c-40.5-1.1-74.3,30.9-75.4,71.4
			c-0.6,20.4,7.2,40.4,20.3,54.1l25.6,25.5l80.4,81.6c1.3,1.2,12.4,10.1,12.6,25.6c0,2.5-0.4,6-0.9,8.4l69.4-68.3
			C704.1,199.2,637.3,145.3,637.3,145.3z"/>
		
			<linearGradient id="SVGID_2_" gradientUnits="userSpaceOnUse" x1="490.9421" y1="6145.252" x2="546.2192" y2="6213.2852" gradientTransform="matrix(1 0 0 1 0 -6054)">
			<stop  offset="0" style="stop-color:#FFFFFF"/>
			<stop  offset="0.2836" style="stop-color:#FFFFFF;stop-opacity:0"/>
		</linearGradient>
		<path class="st2" d="M561.6,124.8c0,24-19.4,43.4-43.4,43.4s-43.4-19.4-43.4-43.4s19.4-43.4,43.4-43.4
			C542.2,81.4,561.6,100.8,561.6,124.8z"/>
		<path class="st3" d="M580.4,316.8c-0.1-12.9-11.1-22.3-11.1-22.3l-78.9-79.7l-19,18.6l0,0c-13.8,12.9-24.1,29.3-24.6,49.7
			c-1.1,40.5,30.9,74.3,71.4,75.4c18.7,0.5,36-4,48.8-15.6C577.1,333,580.4,325.6,580.4,316.8z"/>
	</g>
	<path class="st4" d="M720.7,195.1l-11.1-10.3l-3.8-3.6c-4.1-4.2-8.2-7.2-14.2-7.1c-10.1,0.1-18.3,8.4-18.2,18.5
		c0.1,5.1,2.2,10,5.6,13.3l6.6,6.1l20.8,19.7c0.3,0.3,3.2,2.4,3.4,6.3c0,0.6,0,1.5-0.1,2.1l16.7-17.7
		C737.8,207.9,720.7,195.1,720.7,195.1z"/>
	<path class="st4" d="M708,238.4c-0.1-3.2-3-5.5-3-5.5l-20.4-19.2l-4.6,4.8l0,0c-3.3,3.4-5.7,7.5-5.7,12.6
		c0.1,10.1,8.4,18.3,18.5,18.2c4.7,0,9-1.3,12-4.4C707.4,242.5,708.1,240.6,708,238.4z"/>
	<path class="st4" d="M9.6,228.2l11.1,10.3l3.8,3.6c4.1,4.2,8.2,7.2,14.2,7.1c10.1-0.1,18.3-8.4,18.2-18.5c0-5.1-2.2-10-5.6-13.3
		l-6.6-6.1l-20.8-19.7c-0.3-0.3-3.2-2.4-3.4-6.3c0-0.6,0-1.5,0.1-2.1L4,200.9C-7.5,215.3,9.6,228.2,9.6,228.2z"/>
	<path class="st4" d="M22.3,184.8c0.1,3.2,3,5.5,3,5.5l20.4,19.2l4.6-4.8l0,0c3.3-3.4,5.7-7.5,5.7-12.6
		c-0.1-10.1-8.4-18.3-18.5-18.2c-4.7,0-9,1.3-12,4.4C23,180.8,22.2,182.6,22.3,184.8z"/>
	<path class="st4" d="M345.5,9.6l-10.3,11.1l-3.6,3.8c-4.2,4.1-7.2,8.2-7.1,14.2c0.1,10.1,8.4,18.3,18.5,18.2c5.1,0,10-2.2,13.3-5.6
		l6.1-6.6l19.7-20.8c0.3-0.3,2.4-3.2,6.3-3.4c0.6,0,1.5,0,2.1,0.1L372.8,4C358.3-7.5,345.5,9.6,345.5,9.6z"/>
	<path class="st4" d="M388.9,22.3c-3.2,0.2-5.5,3-5.5,3l-19.2,20.4l4.8,4.6l0,0c3.4,3.3,7.5,5.7,12.6,5.7
		c10.1-0.1,18.3-8.4,18.2-18.5c0-4.7-1.3-9-4.4-12C392.9,23,391,22.2,388.9,22.3z"/>
	<path class="st4" d="M378.6,405.7l10.3-11.1l3.6-3.8c4.2-4.1,7.2-8.2,7.1-14.2c-0.1-10.1-8.4-18.3-18.5-18.2
		c-5.1,0.1-10,2.2-13.3,5.6l-6.1,6.6L342,391.4c-0.3,0.3-2.4,3.2-6.3,3.4c-0.6,0-1.5,0-2.1-0.2l17.7,16.7
		C365.8,422.8,378.6,405.7,378.6,405.7z"/>
	<path class="st4" d="M335.2,393c3.2-0.1,5.5-3,5.5-3l19.2-20.4l-4.8-4.6l0,0c-3.4-3.3-7.5-5.7-12.6-5.7
		c-10.1,0.1-18.3,8.4-18.2,18.5c0,4.7,1.3,9,4.4,12C331.2,392.4,333.1,393.1,335.2,393z"/>
	<rect x="56.9" y="56.8" class="st4" width="616.5" height="301.5"/>
	<rect y="0.1" class="st4" width="730.2" height="415.3"/>
</g>
</svg>
